<mxfile host="65bd71144e">
    <diagram name="Page-1" id="IM49sPf6R1_xTn5Gqx_o">
        <mxGraphModel dx="458" dy="329" grid="1" gridSize="10" guides="1" tooltips="1" connect="1" arrows="1" fold="1" page="1" pageScale="1" pageWidth="1169" pageHeight="827" math="0" shadow="0">
            <root>
                <mxCell id="0"/>
                <mxCell id="1" parent="0"/>
                <mxCell id="uGfOm0XeqOfJQ8dVQIQY-21" value="Possible additional modules" style="rounded=0;whiteSpace=wrap;html=1;dashed=1;verticalAlign=top;fillColor=#363636;" parent="1" vertex="1">
                    <mxGeometry x="310.5" y="655" width="330" height="90" as="geometry"/>
                </mxCell>
                <mxCell id="_x3MM-vXp0j6kJJpgNZF-102" value="" style="rounded=0;whiteSpace=wrap;html=1;fillColor=#363636;" parent="1" vertex="1">
                    <mxGeometry x="980" y="330" width="130" height="240" as="geometry"/>
                </mxCell>
                <mxCell id="_x3MM-vXp0j6kJJpgNZF-53" value="" style="rounded=0;whiteSpace=wrap;html=1;fillColor=#363636;fontColor=#FFFFFF;" parent="1" vertex="1">
                    <mxGeometry x="690" y="330" width="240" height="270" as="geometry"/>
                </mxCell>
                <mxCell id="_x3MM-vXp0j6kJJpgNZF-11" value="" style="rounded=0;whiteSpace=wrap;html=1;fillColor=#363636;" parent="1" vertex="1">
                    <mxGeometry x="260" y="330" width="230" height="190" as="geometry"/>
                </mxCell>
                <mxCell id="_x3MM-vXp0j6kJJpgNZF-21" style="edgeStyle=orthogonalEdgeStyle;rounded=0;orthogonalLoop=1;jettySize=auto;html=1;exitX=0.5;exitY=1;exitDx=0;exitDy=0;entryX=0.5;entryY=0;entryDx=0;entryDy=0;" parent="1" source="_x3MM-vXp0j6kJJpgNZF-12" target="_x3MM-vXp0j6kJJpgNZF-13" edge="1">
                    <mxGeometry relative="1" as="geometry"/>
                </mxCell>
                <mxCell id="_x3MM-vXp0j6kJJpgNZF-22" style="edgeStyle=orthogonalEdgeStyle;rounded=0;orthogonalLoop=1;jettySize=auto;html=1;exitX=0.5;exitY=1;exitDx=0;exitDy=0;entryX=0.5;entryY=0;entryDx=0;entryDy=0;" parent="1" source="_x3MM-vXp0j6kJJpgNZF-12" target="_x3MM-vXp0j6kJJpgNZF-14" edge="1">
                    <mxGeometry relative="1" as="geometry"/>
                </mxCell>
                <mxCell id="_x3MM-vXp0j6kJJpgNZF-12" value="EMG DAQ" style="rounded=0;whiteSpace=wrap;html=1;fillColor=#d5e8d4;gradientColor=#97d077;strokeColor=#82b366;fontColor=#000000;" parent="1" vertex="1">
                    <mxGeometry x="335" y="400" width="80" height="40" as="geometry"/>
                </mxCell>
                <mxCell id="_x3MM-vXp0j6kJJpgNZF-13" value="Electrode type A" style="rounded=0;whiteSpace=wrap;html=1;fillColor=#e6d0de;gradientColor=#d5739d;strokeColor=#996185;fontColor=#000000;" parent="1" vertex="1">
                    <mxGeometry x="265" y="480" width="100" height="30" as="geometry"/>
                </mxCell>
                <mxCell id="_x3MM-vXp0j6kJJpgNZF-14" value="Electrode type B" style="rounded=0;whiteSpace=wrap;html=1;fillColor=#e6d0de;gradientColor=#d5739d;strokeColor=#996185;fontColor=#000000;" parent="1" vertex="1">
                    <mxGeometry x="385" y="480" width="100" height="30" as="geometry"/>
                </mxCell>
                <mxCell id="_x3MM-vXp0j6kJJpgNZF-23" style="edgeStyle=orthogonalEdgeStyle;rounded=0;orthogonalLoop=1;jettySize=auto;html=1;exitX=0.5;exitY=1;exitDx=0;exitDy=0;entryX=0.5;entryY=0;entryDx=0;entryDy=0;" parent="1" source="_x3MM-vXp0j6kJJpgNZF-15" target="_x3MM-vXp0j6kJJpgNZF-12" edge="1">
                    <mxGeometry relative="1" as="geometry"/>
                </mxCell>
                <mxCell id="_x3MM-vXp0j6kJJpgNZF-15" value="Communication module" style="rounded=0;whiteSpace=wrap;html=1;fillColor=#dae8fc;strokeColor=#6c8ebf;gradientColor=#7ea6e0;fontColor=#000000;" parent="1" vertex="1">
                    <mxGeometry x="320" y="340" width="110" height="40" as="geometry"/>
                </mxCell>
                <mxCell id="_x3MM-vXp0j6kJJpgNZF-41" value="com. bus" style="edgeStyle=orthogonalEdgeStyle;rounded=0;orthogonalLoop=1;jettySize=auto;html=1;exitX=-0.01;exitY=0.126;exitDx=0;exitDy=0;entryX=1;entryY=0.5;entryDx=0;entryDy=0;startArrow=classic;startFill=1;exitPerimeter=0;fillColor=#ffcd28;gradientColor=#ffa500;strokeColor=#d79b00;strokeWidth=3;labelBackgroundColor=#363636;labelBorderColor=#d79b00;fontColor=#FFFFFF;" parent="1" source="_x3MM-vXp0j6kJJpgNZF-94" target="_x3MM-vXp0j6kJJpgNZF-15" edge="1">
                    <mxGeometry relative="1" as="geometry">
                        <mxPoint x="565" y="360" as="sourcePoint"/>
                    </mxGeometry>
                </mxCell>
                <mxCell id="_x3MM-vXp0j6kJJpgNZF-33" value="" style="rounded=0;whiteSpace=wrap;html=1;fillColor=#363636;" parent="1" vertex="1">
                    <mxGeometry x="15" y="330" width="230" height="190" as="geometry"/>
                </mxCell>
                <mxCell id="_x3MM-vXp0j6kJJpgNZF-34" style="edgeStyle=orthogonalEdgeStyle;rounded=0;orthogonalLoop=1;jettySize=auto;html=1;exitX=0.5;exitY=1;exitDx=0;exitDy=0;entryX=0.5;entryY=0;entryDx=0;entryDy=0;" parent="1" source="_x3MM-vXp0j6kJJpgNZF-36" target="_x3MM-vXp0j6kJJpgNZF-37" edge="1">
                    <mxGeometry relative="1" as="geometry"/>
                </mxCell>
                <mxCell id="_x3MM-vXp0j6kJJpgNZF-35" style="edgeStyle=orthogonalEdgeStyle;rounded=0;orthogonalLoop=1;jettySize=auto;html=1;exitX=0.5;exitY=1;exitDx=0;exitDy=0;entryX=0.5;entryY=0;entryDx=0;entryDy=0;" parent="1" source="_x3MM-vXp0j6kJJpgNZF-36" target="_x3MM-vXp0j6kJJpgNZF-38" edge="1">
                    <mxGeometry relative="1" as="geometry"/>
                </mxCell>
                <mxCell id="_x3MM-vXp0j6kJJpgNZF-36" value="EMG DAQ" style="rounded=0;whiteSpace=wrap;html=1;fillColor=#d5e8d4;gradientColor=#97d077;strokeColor=#82b366;fontColor=#000000;" parent="1" vertex="1">
                    <mxGeometry x="90" y="400" width="80" height="40" as="geometry"/>
                </mxCell>
                <mxCell id="_x3MM-vXp0j6kJJpgNZF-37" value="Electrode type A" style="rounded=0;whiteSpace=wrap;html=1;fillColor=#e6d0de;gradientColor=#d5739d;strokeColor=#996185;fontColor=#000000;" parent="1" vertex="1">
                    <mxGeometry x="20" y="480" width="100" height="30" as="geometry"/>
                </mxCell>
                <mxCell id="_x3MM-vXp0j6kJJpgNZF-38" value="Electrode type B" style="rounded=0;whiteSpace=wrap;html=1;fillColor=#e6d0de;gradientColor=#d5739d;strokeColor=#996185;fontColor=#000000;" parent="1" vertex="1">
                    <mxGeometry x="140" y="480" width="100" height="30" as="geometry"/>
                </mxCell>
                <mxCell id="_x3MM-vXp0j6kJJpgNZF-39" style="edgeStyle=orthogonalEdgeStyle;rounded=0;orthogonalLoop=1;jettySize=auto;html=1;exitX=0.5;exitY=1;exitDx=0;exitDy=0;entryX=0.5;entryY=0;entryDx=0;entryDy=0;" parent="1" source="_x3MM-vXp0j6kJJpgNZF-40" target="_x3MM-vXp0j6kJJpgNZF-36" edge="1">
                    <mxGeometry relative="1" as="geometry"/>
                </mxCell>
                <mxCell id="_x3MM-vXp0j6kJJpgNZF-40" value="Communication module" style="rounded=0;whiteSpace=wrap;html=1;fillColor=#dae8fc;strokeColor=#6c8ebf;gradientColor=#7ea6e0;fontColor=#000000;" parent="1" vertex="1">
                    <mxGeometry x="75" y="340" width="110" height="40" as="geometry"/>
                </mxCell>
                <mxCell id="_x3MM-vXp0j6kJJpgNZF-42" value="com. bus" style="edgeStyle=orthogonalEdgeStyle;rounded=0;orthogonalLoop=1;jettySize=auto;html=1;entryX=1;entryY=0.5;entryDx=0;entryDy=0;startArrow=classic;startFill=1;fillColor=#ffcd28;gradientColor=#ffa500;strokeColor=#d79b00;strokeWidth=3;labelBackgroundColor=#363636;labelBorderColor=#d79b00;fontColor=#FFFFFF;" parent="1" target="_x3MM-vXp0j6kJJpgNZF-40" edge="1">
                    <mxGeometry x="0.0441" relative="1" as="geometry">
                        <mxPoint x="321" y="360" as="sourcePoint"/>
                        <mxPoint x="440" y="370" as="targetPoint"/>
                        <mxPoint as="offset"/>
                    </mxGeometry>
                </mxCell>
                <mxCell id="_x3MM-vXp0j6kJJpgNZF-48" value="&lt;div&gt;USB&lt;/div&gt;&lt;div&gt;Ethernet&lt;/div&gt;&lt;div&gt;WiFi&lt;br&gt;&lt;/div&gt;" style="edgeStyle=orthogonalEdgeStyle;rounded=0;orthogonalLoop=1;jettySize=auto;html=1;exitX=1;exitY=0.5;exitDx=0;exitDy=0;entryX=0;entryY=0.5;entryDx=0;entryDy=0;startArrow=classic;startFill=1;labelBackgroundColor=#363636;labelBorderColor=#FFFFFF;fontColor=#FFFFFF;" parent="1" source="_x3MM-vXp0j6kJJpgNZF-43" target="_x3MM-vXp0j6kJJpgNZF-45" edge="1">
                    <mxGeometry relative="1" as="geometry"/>
                </mxCell>
                <mxCell id="_x3MM-vXp0j6kJJpgNZF-43" value="MicroController" style="rounded=0;whiteSpace=wrap;html=1;fillColor=#f8cecc;gradientColor=#ea6b66;strokeColor=#b85450;fontColor=#000000;" parent="1" vertex="1">
                    <mxGeometry x="75" y="270" width="120" height="30" as="geometry"/>
                </mxCell>
                <mxCell id="_x3MM-vXp0j6kJJpgNZF-44" value="&lt;div&gt;Com. bus&lt;/div&gt;" style="edgeStyle=orthogonalEdgeStyle;rounded=0;orthogonalLoop=1;jettySize=auto;html=1;exitX=0;exitY=0.5;exitDx=0;exitDy=0;entryX=0;entryY=0.5;entryDx=0;entryDy=0;startArrow=classic;startFill=1;fillColor=#ffcd28;gradientColor=#ffa500;strokeColor=#d79b00;strokeWidth=3;labelBackgroundColor=#363636;labelBorderColor=#d79b00;fontColor=#FFFFFF;" parent="1" source="_x3MM-vXp0j6kJJpgNZF-40" target="_x3MM-vXp0j6kJJpgNZF-43" edge="1">
                    <mxGeometry x="0.0436" relative="1" as="geometry">
                        <mxPoint x="585" y="380" as="sourcePoint"/>
                        <mxPoint x="450" y="380" as="targetPoint"/>
                        <mxPoint as="offset"/>
                    </mxGeometry>
                </mxCell>
                <mxCell id="_x3MM-vXp0j6kJJpgNZF-45" value="" style="rounded=0;whiteSpace=wrap;html=1;fillColor=#363636;strokeColor=#36393d;" parent="1" vertex="1">
                    <mxGeometry x="295" y="20" width="665" height="250" as="geometry"/>
                </mxCell>
                <mxCell id="_x3MM-vXp0j6kJJpgNZF-47" value="Sync" style="edgeStyle=orthogonalEdgeStyle;rounded=0;orthogonalLoop=1;jettySize=auto;html=1;exitX=0.5;exitY=1;exitDx=0;exitDy=0;entryX=0.5;entryY=0;entryDx=0;entryDy=0;endArrow=none;endFill=0;labelBackgroundColor=#363636;labelBorderColor=default;fontColor=#FFFFFF;" parent="1" source="_x3MM-vXp0j6kJJpgNZF-46" target="_x3MM-vXp0j6kJJpgNZF-43" edge="1">
                    <mxGeometry relative="1" as="geometry"/>
                </mxCell>
                <mxCell id="_x3MM-vXp0j6kJJpgNZF-46" value="MicroController" style="rounded=0;whiteSpace=wrap;html=1;fillColor=#f8cecc;gradientColor=#ea6b66;strokeColor=#b85450;fontColor=#000000;" parent="1" vertex="1">
                    <mxGeometry x="75" y="210" width="120" height="30" as="geometry"/>
                </mxCell>
                <mxCell id="_x3MM-vXp0j6kJJpgNZF-52" value="Communication module" style="rounded=0;whiteSpace=wrap;html=1;fillColor=#dae8fc;strokeColor=#6c8ebf;gradientColor=#7ea6e0;fontColor=#000000;" parent="1" vertex="1">
                    <mxGeometry x="690" y="330" width="240" height="25" as="geometry"/>
                </mxCell>
                <mxCell id="_x3MM-vXp0j6kJJpgNZF-55" value="identity comp. SN54HC688" style="rounded=0;whiteSpace=wrap;html=1;fillColor=#292929;fontColor=#FFFFFF;" parent="1" vertex="1">
                    <mxGeometry x="754" y="410" width="120" height="40" as="geometry"/>
                </mxCell>
                <mxCell id="_x3MM-vXp0j6kJJpgNZF-59" value="&lt;span style=&quot;&quot;&gt;Set address&lt;/span&gt;" style="edgeStyle=orthogonalEdgeStyle;rounded=0;orthogonalLoop=1;jettySize=auto;html=1;exitX=0.5;exitY=0;exitDx=0;exitDy=0;entryX=0.5;entryY=1;entryDx=0;entryDy=0;labelBackgroundColor=none;fontColor=#FFFFFF;" parent="1" source="_x3MM-vXp0j6kJJpgNZF-56" target="_x3MM-vXp0j6kJJpgNZF-55" edge="1">
                    <mxGeometry x="-0.9942" y="-55" relative="1" as="geometry">
                        <Array as="points">
                            <mxPoint x="815" y="460"/>
                            <mxPoint x="814" y="460"/>
                        </Array>
                        <mxPoint x="1" as="offset"/>
                    </mxGeometry>
                </mxCell>
                <mxCell id="_x3MM-vXp0j6kJJpgNZF-63" style="edgeStyle=orthogonalEdgeStyle;rounded=0;orthogonalLoop=1;jettySize=auto;html=1;exitX=0.5;exitY=1;exitDx=0;exitDy=0;entryX=0.5;entryY=0;entryDx=0;entryDy=0;" parent="1" source="_x3MM-vXp0j6kJJpgNZF-56" target="_x3MM-vXp0j6kJJpgNZF-62" edge="1">
                    <mxGeometry relative="1" as="geometry"/>
                </mxCell>
                <mxCell id="_x3MM-vXp0j6kJJpgNZF-119" style="edgeStyle=orthogonalEdgeStyle;rounded=0;orthogonalLoop=1;jettySize=auto;html=1;exitX=1;exitY=0.5;exitDx=0;exitDy=0;fillColor=#f5f5f5;strokeColor=#666666;" parent="1" source="_x3MM-vXp0j6kJJpgNZF-56" target="_x3MM-vXp0j6kJJpgNZF-106" edge="1">
                    <mxGeometry relative="1" as="geometry"/>
                </mxCell>
                <mxCell id="_x3MM-vXp0j6kJJpgNZF-56" value="&lt;div&gt;uCtrl&lt;/div&gt;&lt;div&gt;HC32L110&lt;/div&gt;" style="rounded=0;whiteSpace=wrap;html=1;fillColor=#292929;fontColor=#FFFFFF;" parent="1" vertex="1">
                    <mxGeometry x="779.5" y="470" width="70" height="40" as="geometry"/>
                </mxCell>
                <mxCell id="_x3MM-vXp0j6kJJpgNZF-62" value="&lt;div&gt;RGB LED&lt;/div&gt;&lt;div&gt;NeoPixel&lt;br&gt;&lt;/div&gt;" style="rounded=0;whiteSpace=wrap;html=1;fillColor=#292929;fontColor=#FFFFFF;" parent="1" vertex="1">
                    <mxGeometry x="779.5" y="525" width="70" height="40" as="geometry"/>
                </mxCell>
                <mxCell id="_x3MM-vXp0j6kJJpgNZF-137" style="edgeStyle=orthogonalEdgeStyle;rounded=0;orthogonalLoop=1;jettySize=auto;html=1;exitX=0.5;exitY=1;exitDx=0;exitDy=0;entryX=0.5;entryY=1;entryDx=0;entryDy=0;" parent="1" source="_x3MM-vXp0j6kJJpgNZF-74" target="_x3MM-vXp0j6kJJpgNZF-88" edge="1">
                    <mxGeometry relative="1" as="geometry"/>
                </mxCell>
                <mxCell id="_x3MM-vXp0j6kJJpgNZF-74" value="" style="rounded=0;whiteSpace=wrap;html=1;fillColor=#363636;" parent="1" vertex="1">
                    <mxGeometry x="749" y="630" width="150" height="160" as="geometry"/>
                </mxCell>
                <mxCell id="_x3MM-vXp0j6kJJpgNZF-75" value="EMG DAQ" style="rounded=0;whiteSpace=wrap;html=1;fillColor=#d5e8d4;gradientColor=#97d077;strokeColor=#82b366;fontColor=#000000;" parent="1" vertex="1">
                    <mxGeometry x="749" y="630" width="150" height="25" as="geometry"/>
                </mxCell>
                <mxCell id="_x3MM-vXp0j6kJJpgNZF-85" style="edgeStyle=orthogonalEdgeStyle;rounded=0;orthogonalLoop=1;jettySize=auto;html=1;exitX=0.5;exitY=0;exitDx=0;exitDy=0;entryX=0.5;entryY=1;entryDx=0;entryDy=0;endArrow=none;endFill=0;" parent="1" source="_x3MM-vXp0j6kJJpgNZF-77" target="_x3MM-vXp0j6kJJpgNZF-84" edge="1">
                    <mxGeometry relative="1" as="geometry"/>
                </mxCell>
                <mxCell id="_x3MM-vXp0j6kJJpgNZF-77" value="&lt;div&gt;EMG ADC&lt;/div&gt;&lt;div&gt;ADS1293&lt;br&gt;&lt;/div&gt;" style="rounded=0;whiteSpace=wrap;html=1;fillColor=#292929;fontColor=#FFFFFF;" parent="1" vertex="1">
                    <mxGeometry x="764" y="700" width="120" height="40" as="geometry"/>
                </mxCell>
                <mxCell id="_x3MM-vXp0j6kJJpgNZF-84" value="&lt;div&gt;Crystal 4.096Mhz&lt;br&gt;&lt;/div&gt;" style="rounded=0;whiteSpace=wrap;html=1;fillColor=#292929;fontColor=#FFFFFF;" parent="1" vertex="1">
                    <mxGeometry x="764" y="670" width="120" height="20" as="geometry"/>
                </mxCell>
                <mxCell id="_x3MM-vXp0j6kJJpgNZF-86" value="" style="edgeStyle=orthogonalEdgeStyle;rounded=0;orthogonalLoop=1;jettySize=auto;html=1;fillColor=#f8cecc;strokeColor=#b85450;endArrow=none;endFill=0;" parent="1" edge="1">
                    <mxGeometry relative="1" as="geometry">
                        <mxPoint x="800" y="754" as="sourcePoint"/>
                        <mxPoint x="710" y="570" as="targetPoint"/>
                        <Array as="points">
                            <mxPoint x="710" y="754"/>
                        </Array>
                    </mxGeometry>
                </mxCell>
                <mxCell id="_x3MM-vXp0j6kJJpgNZF-88" value="&lt;div&gt;Ex: &lt;br&gt;&lt;/div&gt;&lt;div&gt;- Jack connectors for sticky wet electrodes&lt;/div&gt;&lt;div&gt;- pins connector for breadboards&lt;/div&gt;&lt;div&gt;- PCB gold plated surface electrodes&lt;br&gt;&lt;/div&gt;" style="rounded=0;whiteSpace=wrap;html=1;verticalAlign=bottom;align=left;fillColor=#363636;fontColor=#FFFFFF;" parent="1" vertex="1">
                    <mxGeometry x="920" y="690" width="230" height="100" as="geometry"/>
                </mxCell>
                <mxCell id="_x3MM-vXp0j6kJJpgNZF-89" value="Electrodes" style="rounded=0;whiteSpace=wrap;html=1;fillColor=#e6d0de;gradientColor=#d5739d;strokeColor=#996185;fontColor=#000000;" parent="1" vertex="1">
                    <mxGeometry x="920" y="690" width="230" height="30" as="geometry"/>
                </mxCell>
                <mxCell id="_x3MM-vXp0j6kJJpgNZF-94" value="" style="rounded=0;whiteSpace=wrap;html=1;fillColor=#363636;" parent="1" vertex="1">
                    <mxGeometry x="510" y="330" width="130" height="240" as="geometry"/>
                </mxCell>
                <mxCell id="_x3MM-vXp0j6kJJpgNZF-95" value="&lt;div&gt;Communication bus&lt;/div&gt;" style="rounded=0;whiteSpace=wrap;html=1;fillColor=#ffcd28;gradientColor=#ffa500;strokeColor=#d79b00;fontColor=#000000;" parent="1" vertex="1">
                    <mxGeometry x="510" y="330" width="130.5" height="25" as="geometry"/>
                </mxCell>
                <mxCell id="_x3MM-vXp0j6kJJpgNZF-113" style="edgeStyle=orthogonalEdgeStyle;rounded=0;orthogonalLoop=1;jettySize=auto;html=1;exitX=1;exitY=0.5;exitDx=0;exitDy=0;entryX=0;entryY=0.5;entryDx=0;entryDy=0;fillColor=#fff2cc;strokeColor=#d6b656;dashed=1;" parent="1" source="_x3MM-vXp0j6kJJpgNZF-96" target="_x3MM-vXp0j6kJJpgNZF-104" edge="1">
                    <mxGeometry relative="1" as="geometry">
                        <Array as="points">
                            <mxPoint x="650" y="419"/>
                            <mxPoint x="650" y="390"/>
                            <mxPoint x="970" y="390"/>
                            <mxPoint x="970" y="419"/>
                        </Array>
                    </mxGeometry>
                </mxCell>
                <mxCell id="_x3MM-vXp0j6kJJpgNZF-96" value="&lt;div&gt;SPI_MISO&lt;/div&gt;&lt;div&gt;SPI_MOSI&lt;/div&gt;&lt;div&gt;SPI_CLK&lt;/div&gt;" style="text;html=1;strokeColor=none;fillColor=none;align=center;verticalAlign=middle;whiteSpace=wrap;rounded=0;fontColor=#FFFFFF;" parent="1" vertex="1">
                    <mxGeometry x="524" y="394" width="96" height="50" as="geometry"/>
                </mxCell>
                <mxCell id="_x3MM-vXp0j6kJJpgNZF-114" style="edgeStyle=orthogonalEdgeStyle;rounded=0;orthogonalLoop=1;jettySize=auto;html=1;fillColor=#e1d5e7;strokeColor=#9673a6;entryX=0;entryY=0.5;entryDx=0;entryDy=0;" parent="1" target="_x3MM-vXp0j6kJJpgNZF-55" edge="1">
                    <mxGeometry relative="1" as="geometry">
                        <mxPoint x="740" y="400" as="sourcePoint"/>
                        <mxPoint x="750" y="430" as="targetPoint"/>
                        <Array as="points">
                            <mxPoint x="740" y="430"/>
                        </Array>
                    </mxGeometry>
                </mxCell>
                <mxCell id="_x3MM-vXp0j6kJJpgNZF-115" style="edgeStyle=orthogonalEdgeStyle;rounded=0;orthogonalLoop=1;jettySize=auto;html=1;exitX=1;exitY=0.5;exitDx=0;exitDy=0;entryX=0;entryY=0.5;entryDx=0;entryDy=0;fillColor=#e1d5e7;strokeColor=#9673a6;dashed=1;" parent="1" source="_x3MM-vXp0j6kJJpgNZF-97" target="_x3MM-vXp0j6kJJpgNZF-105" edge="1">
                    <mxGeometry relative="1" as="geometry">
                        <Array as="points">
                            <mxPoint x="660" y="459"/>
                            <mxPoint x="660" y="400"/>
                            <mxPoint x="960" y="400"/>
                            <mxPoint x="960" y="459"/>
                        </Array>
                    </mxGeometry>
                </mxCell>
                <mxCell id="_x3MM-vXp0j6kJJpgNZF-97" value="ADDR_bits(5)" style="text;html=1;strokeColor=none;fillColor=none;align=center;verticalAlign=middle;whiteSpace=wrap;rounded=0;fontColor=#FFFFFF;" parent="1" vertex="1">
                    <mxGeometry x="531" y="444" width="89" height="30" as="geometry"/>
                </mxCell>
                <mxCell id="_x3MM-vXp0j6kJJpgNZF-118" style="edgeStyle=orthogonalEdgeStyle;rounded=0;orthogonalLoop=1;jettySize=auto;html=1;exitX=1;exitY=0.5;exitDx=0;exitDy=0;fillColor=#f5f5f5;strokeColor=#666666;" parent="1" source="_x3MM-vXp0j6kJJpgNZF-98" target="_x3MM-vXp0j6kJJpgNZF-56" edge="1">
                    <mxGeometry relative="1" as="geometry"/>
                </mxCell>
                <mxCell id="_x3MM-vXp0j6kJJpgNZF-98" value="additional io(5)" style="text;html=1;strokeColor=none;fillColor=none;align=center;verticalAlign=middle;whiteSpace=wrap;rounded=0;fontColor=#FFFFFF;" parent="1" vertex="1">
                    <mxGeometry x="520" y="470" width="108" height="40" as="geometry"/>
                </mxCell>
                <mxCell id="_x3MM-vXp0j6kJJpgNZF-128" style="edgeStyle=orthogonalEdgeStyle;rounded=0;orthogonalLoop=1;jettySize=auto;html=1;exitX=1;exitY=0.5;exitDx=0;exitDy=0;entryX=0;entryY=0.5;entryDx=0;entryDy=0;dashed=1;fillColor=#f8cecc;strokeColor=#b85450;" parent="1" source="_x3MM-vXp0j6kJJpgNZF-99" target="_x3MM-vXp0j6kJJpgNZF-107" edge="1">
                    <mxGeometry relative="1" as="geometry">
                        <Array as="points">
                            <mxPoint x="660" y="518"/>
                            <mxPoint x="660" y="570"/>
                            <mxPoint x="960" y="570"/>
                            <mxPoint x="960" y="518"/>
                        </Array>
                    </mxGeometry>
                </mxCell>
                <mxCell id="_x3MM-vXp0j6kJJpgNZF-99" value="&lt;div&gt;Global Ref&lt;/div&gt;" style="text;html=1;strokeColor=none;fillColor=none;align=center;verticalAlign=middle;whiteSpace=wrap;rounded=0;fontColor=#FFFFFF;" parent="1" vertex="1">
                    <mxGeometry x="541" y="498" width="79" height="40" as="geometry"/>
                </mxCell>
                <mxCell id="_x3MM-vXp0j6kJJpgNZF-129" style="edgeStyle=orthogonalEdgeStyle;rounded=0;orthogonalLoop=1;jettySize=auto;html=1;exitX=1;exitY=0.5;exitDx=0;exitDy=0;fillColor=#dae8fc;strokeColor=#6c8ebf;dashed=1;" parent="1" source="_x3MM-vXp0j6kJJpgNZF-100" target="_x3MM-vXp0j6kJJpgNZF-108" edge="1">
                    <mxGeometry relative="1" as="geometry">
                        <Array as="points">
                            <mxPoint x="650" y="545"/>
                            <mxPoint x="650" y="580"/>
                            <mxPoint x="970" y="580"/>
                            <mxPoint x="970" y="545"/>
                        </Array>
                    </mxGeometry>
                </mxCell>
                <mxCell id="_x3MM-vXp0j6kJJpgNZF-100" value="3 aux." style="text;html=1;strokeColor=none;fillColor=none;align=center;verticalAlign=middle;whiteSpace=wrap;rounded=0;fontColor=#FFFFFF;" parent="1" vertex="1">
                    <mxGeometry x="541" y="525" width="79" height="40" as="geometry"/>
                </mxCell>
                <mxCell id="_x3MM-vXp0j6kJJpgNZF-112" style="edgeStyle=orthogonalEdgeStyle;rounded=0;orthogonalLoop=1;jettySize=auto;html=1;exitX=1;exitY=0.5;exitDx=0;exitDy=0;fillColor=#d5e8d4;strokeColor=#82b366;dashed=1;" parent="1" source="_x3MM-vXp0j6kJJpgNZF-101" target="_x3MM-vXp0j6kJJpgNZF-109" edge="1">
                    <mxGeometry relative="1" as="geometry"/>
                </mxCell>
                <mxCell id="_x3MM-vXp0j6kJJpgNZF-101" value="&lt;div&gt;Vcc&lt;/div&gt;&lt;div&gt;GND&lt;/div&gt;" style="text;html=1;strokeColor=none;fillColor=none;align=center;verticalAlign=middle;whiteSpace=wrap;rounded=0;fontColor=#FFFFFF;" parent="1" vertex="1">
                    <mxGeometry x="524" y="364" width="96" height="30" as="geometry"/>
                </mxCell>
                <mxCell id="_x3MM-vXp0j6kJJpgNZF-104" value="&lt;div&gt;SPI_MISO&lt;/div&gt;&lt;div&gt;SPI_MOSI&lt;/div&gt;&lt;div&gt;SPI_CLK&lt;/div&gt;" style="text;html=1;strokeColor=none;fillColor=none;align=center;verticalAlign=middle;whiteSpace=wrap;rounded=0;fontColor=#FFFFFF;" parent="1" vertex="1">
                    <mxGeometry x="1000" y="394" width="94" height="50" as="geometry"/>
                </mxCell>
                <mxCell id="_x3MM-vXp0j6kJJpgNZF-105" value="ADDR_bits(5)" style="text;html=1;strokeColor=none;fillColor=none;align=center;verticalAlign=middle;whiteSpace=wrap;rounded=0;fontColor=#FFFFFF;" parent="1" vertex="1">
                    <mxGeometry x="1001" y="444" width="86" height="30" as="geometry"/>
                </mxCell>
                <mxCell id="_x3MM-vXp0j6kJJpgNZF-106" value="additional io(5)" style="text;html=1;strokeColor=none;fillColor=none;align=center;verticalAlign=middle;whiteSpace=wrap;rounded=0;fontColor=#FFFFFF;" parent="1" vertex="1">
                    <mxGeometry x="1000" y="470" width="98" height="40" as="geometry"/>
                </mxCell>
                <mxCell id="_x3MM-vXp0j6kJJpgNZF-107" value="&lt;div&gt;Global Ref&lt;/div&gt;" style="text;html=1;strokeColor=none;fillColor=none;align=center;verticalAlign=middle;whiteSpace=wrap;rounded=0;fontColor=#FFFFFF;" parent="1" vertex="1">
                    <mxGeometry x="1011" y="498" width="66" height="40" as="geometry"/>
                </mxCell>
                <mxCell id="_x3MM-vXp0j6kJJpgNZF-108" value="3 aux." style="text;html=1;strokeColor=none;fillColor=none;align=center;verticalAlign=middle;whiteSpace=wrap;rounded=0;fontColor=#FFFFFF;" parent="1" vertex="1">
                    <mxGeometry x="1011" y="525" width="66" height="40" as="geometry"/>
                </mxCell>
                <mxCell id="_x3MM-vXp0j6kJJpgNZF-109" value="&lt;div&gt;Vcc&lt;/div&gt;&lt;div&gt;GND&lt;/div&gt;" style="text;html=1;strokeColor=none;fillColor=none;align=center;verticalAlign=middle;whiteSpace=wrap;rounded=0;fontColor=#FFFFFF;" parent="1" vertex="1">
                    <mxGeometry x="1000" y="364" width="94" height="30" as="geometry"/>
                </mxCell>
                <mxCell id="_x3MM-vXp0j6kJJpgNZF-116" value="&lt;div&gt;Communication bus&lt;/div&gt;" style="rounded=0;whiteSpace=wrap;html=1;fillColor=#ffcd28;gradientColor=#ffa500;strokeColor=#d79b00;fontColor=#000000;" parent="1" vertex="1">
                    <mxGeometry x="980" y="330" width="130" height="25" as="geometry"/>
                </mxCell>
                <mxCell id="_x3MM-vXp0j6kJJpgNZF-122" value="" style="edgeStyle=orthogonalEdgeStyle;rounded=0;orthogonalLoop=1;jettySize=auto;html=1;exitX=0.55;exitY=1.007;exitDx=0;exitDy=0;exitPerimeter=0;" parent="1" source="_x3MM-vXp0j6kJJpgNZF-77" edge="1">
                    <mxGeometry relative="1" as="geometry">
                        <mxPoint x="830" y="750" as="sourcePoint"/>
                        <mxPoint x="830" y="790" as="targetPoint"/>
                        <Array as="points"/>
                    </mxGeometry>
                </mxCell>
                <mxCell id="_x3MM-vXp0j6kJJpgNZF-123" value="" style="edgeStyle=orthogonalEdgeStyle;rounded=0;orthogonalLoop=1;jettySize=auto;html=1;exitX=0.633;exitY=0.996;exitDx=0;exitDy=0;exitPerimeter=0;" parent="1" source="_x3MM-vXp0j6kJJpgNZF-77" edge="1">
                    <mxGeometry relative="1" as="geometry">
                        <mxPoint x="840" y="750" as="sourcePoint"/>
                        <mxPoint x="840" y="790" as="targetPoint"/>
                        <Array as="points"/>
                    </mxGeometry>
                </mxCell>
                <mxCell id="_x3MM-vXp0j6kJJpgNZF-124" value="" style="edgeStyle=orthogonalEdgeStyle;rounded=0;orthogonalLoop=1;jettySize=auto;html=1;exitX=0.716;exitY=1.004;exitDx=0;exitDy=0;exitPerimeter=0;" parent="1" source="_x3MM-vXp0j6kJJpgNZF-77" edge="1">
                    <mxGeometry relative="1" as="geometry">
                        <mxPoint x="849.96" y="750" as="sourcePoint"/>
                        <mxPoint x="849.96" y="790" as="targetPoint"/>
                        <Array as="points"/>
                    </mxGeometry>
                </mxCell>
                <mxCell id="_x3MM-vXp0j6kJJpgNZF-126" value="" style="edgeStyle=orthogonalEdgeStyle;rounded=0;orthogonalLoop=1;jettySize=auto;html=1;exitX=0.299;exitY=0.997;exitDx=0;exitDy=0;exitPerimeter=0;" parent="1" source="_x3MM-vXp0j6kJJpgNZF-77" edge="1">
                    <mxGeometry relative="1" as="geometry">
                        <mxPoint x="800" y="750" as="sourcePoint"/>
                        <mxPoint x="800" y="790" as="targetPoint"/>
                        <Array as="points">
                            <mxPoint x="800" y="790"/>
                        </Array>
                    </mxGeometry>
                </mxCell>
                <mxCell id="_x3MM-vXp0j6kJJpgNZF-127" value="" style="edgeStyle=orthogonalEdgeStyle;rounded=0;orthogonalLoop=1;jettySize=auto;html=1;exitX=0.384;exitY=1.013;exitDx=0;exitDy=0;exitPerimeter=0;" parent="1" source="_x3MM-vXp0j6kJJpgNZF-77" edge="1">
                    <mxGeometry relative="1" as="geometry">
                        <mxPoint x="810" y="750" as="sourcePoint"/>
                        <mxPoint x="810" y="790" as="targetPoint"/>
                        <Array as="points">
                            <mxPoint x="810" y="790"/>
                        </Array>
                    </mxGeometry>
                </mxCell>
                <mxCell id="_x3MM-vXp0j6kJJpgNZF-78" value="6 input chanels" style="edgeStyle=orthogonalEdgeStyle;rounded=0;orthogonalLoop=1;jettySize=auto;html=1;exitX=0.466;exitY=0.999;exitDx=0;exitDy=0;entryX=0.5;entryY=1;entryDx=0;entryDy=0;exitPerimeter=0;labelBackgroundColor=#363636;fontColor=#FFFFFF;" parent="1" source="_x3MM-vXp0j6kJJpgNZF-77" edge="1">
                    <mxGeometry relative="1" as="geometry">
                        <mxPoint x="820" y="750" as="sourcePoint"/>
                        <mxPoint x="820" y="790" as="targetPoint"/>
                        <Array as="points">
                            <mxPoint x="820" y="750"/>
                        </Array>
                    </mxGeometry>
                </mxCell>
                <mxCell id="_x3MM-vXp0j6kJJpgNZF-132" style="edgeStyle=orthogonalEdgeStyle;rounded=0;orthogonalLoop=1;jettySize=auto;html=1;fillColor=#e1d5e7;strokeColor=#9673a6;entryX=0;entryY=0.25;entryDx=0;entryDy=0;" parent="1" target="_x3MM-vXp0j6kJJpgNZF-77" edge="1">
                    <mxGeometry relative="1" as="geometry">
                        <mxPoint x="740" y="400" as="sourcePoint"/>
                        <mxPoint x="860" y="700" as="targetPoint"/>
                        <Array as="points">
                            <mxPoint x="740" y="710"/>
                        </Array>
                    </mxGeometry>
                </mxCell>
                <mxCell id="_x3MM-vXp0j6kJJpgNZF-133" style="edgeStyle=orthogonalEdgeStyle;rounded=0;orthogonalLoop=1;jettySize=auto;html=1;entryX=0;entryY=0.5;entryDx=0;entryDy=0;fillColor=#ffe6cc;strokeColor=#d79b00;" parent="1" target="_x3MM-vXp0j6kJJpgNZF-77" edge="1">
                    <mxGeometry relative="1" as="geometry">
                        <mxPoint x="730" y="390" as="sourcePoint"/>
                        <mxPoint x="870" y="720" as="targetPoint"/>
                        <Array as="points">
                            <mxPoint x="730" y="390"/>
                            <mxPoint x="730" y="710"/>
                        </Array>
                    </mxGeometry>
                </mxCell>
                <mxCell id="_x3MM-vXp0j6kJJpgNZF-134" style="edgeStyle=orthogonalEdgeStyle;rounded=0;orthogonalLoop=1;jettySize=auto;html=1;fillColor=#d5e8d4;strokeColor=#82b366;entryX=0;entryY=0.75;entryDx=0;entryDy=0;" parent="1" target="_x3MM-vXp0j6kJJpgNZF-77" edge="1">
                    <mxGeometry relative="1" as="geometry">
                        <mxPoint x="720" y="380" as="sourcePoint"/>
                        <mxPoint x="770" y="720" as="targetPoint"/>
                        <Array as="points">
                            <mxPoint x="720" y="730"/>
                        </Array>
                    </mxGeometry>
                </mxCell>
                <mxCell id="_x3MM-vXp0j6kJJpgNZF-117" style="edgeStyle=orthogonalEdgeStyle;rounded=0;orthogonalLoop=1;jettySize=auto;html=1;exitX=1;exitY=0.5;exitDx=0;exitDy=0;entryX=1;entryY=0.5;entryDx=0;entryDy=0;fillColor=#dae8fc;strokeColor=#6c8ebf;" parent="1" source="_x3MM-vXp0j6kJJpgNZF-55" target="_x3MM-vXp0j6kJJpgNZF-77" edge="1">
                    <mxGeometry relative="1" as="geometry">
                        <mxPoint x="890" y="600" as="targetPoint"/>
                        <Array as="points">
                            <mxPoint x="910" y="430"/>
                            <mxPoint x="910" y="720"/>
                        </Array>
                    </mxGeometry>
                </mxCell>
                <mxCell id="uGfOm0XeqOfJQ8dVQIQY-2" value="PC" style="rounded=0;whiteSpace=wrap;html=1;fillColor=#a0522d;strokeColor=#6D1F00;fontColor=#000000;" parent="1" vertex="1">
                    <mxGeometry x="295" y="20" width="120" height="30" as="geometry"/>
                </mxCell>
                <mxCell id="uGfOm0XeqOfJQ8dVQIQY-9" style="edgeStyle=orthogonalEdgeStyle;rounded=0;orthogonalLoop=1;jettySize=auto;html=1;exitX=1;exitY=0.5;exitDx=0;exitDy=0;entryX=0.5;entryY=0;entryDx=0;entryDy=0;" parent="1" source="uGfOm0XeqOfJQ8dVQIQY-5" target="uGfOm0XeqOfJQ8dVQIQY-6" edge="1">
                    <mxGeometry relative="1" as="geometry"/>
                </mxCell>
                <mxCell id="uGfOm0XeqOfJQ8dVQIQY-11" value="" style="endArrow=classic;html=1;rounded=0;exitX=1;exitY=0.5;exitDx=0;exitDy=0;entryX=0.5;entryY=0;entryDx=0;entryDy=0;edgeStyle=orthogonalEdgeStyle;" parent="1" source="uGfOm0XeqOfJQ8dVQIQY-5" target="uGfOm0XeqOfJQ8dVQIQY-8" edge="1">
                    <mxGeometry width="50" height="50" relative="1" as="geometry">
                        <mxPoint x="430" y="120" as="sourcePoint"/>
                        <mxPoint x="480" y="70" as="targetPoint"/>
                        <Array as="points">
                            <mxPoint x="440" y="145"/>
                            <mxPoint x="440" y="60"/>
                            <mxPoint x="710" y="60"/>
                            <mxPoint x="710" y="80"/>
                        </Array>
                    </mxGeometry>
                </mxCell>
                <mxCell id="uGfOm0XeqOfJQ8dVQIQY-12" value="" style="endArrow=classic;html=1;rounded=0;exitX=1;exitY=0.5;exitDx=0;exitDy=0;entryX=0.5;entryY=0;entryDx=0;entryDy=0;edgeStyle=orthogonalEdgeStyle;" parent="1" source="uGfOm0XeqOfJQ8dVQIQY-5" target="uGfOm0XeqOfJQ8dVQIQY-7" edge="1">
                    <mxGeometry width="50" height="50" relative="1" as="geometry">
                        <mxPoint x="430" y="155" as="sourcePoint"/>
                        <mxPoint x="670" y="90" as="targetPoint"/>
                        <Array as="points">
                            <mxPoint x="440" y="145"/>
                            <mxPoint x="440" y="60"/>
                            <mxPoint x="880" y="60"/>
                        </Array>
                    </mxGeometry>
                </mxCell>
                <mxCell id="uGfOm0XeqOfJQ8dVQIQY-13" value="open_connection&lt;br&gt;setup&lt;br&gt;read_all_signal&lt;br&gt;fast_EMG&lt;br&gt;precise_EMG" style="rounded=0;whiteSpace=wrap;html=1;verticalAlign=bottom;fillColor=#292929;fontColor=#FFFFFF;" parent="1" vertex="1">
                    <mxGeometry x="300" y="127.5" width="120" height="112.5" as="geometry"/>
                </mxCell>
                <mxCell id="uGfOm0XeqOfJQ8dVQIQY-14" value="&lt;span style=&quot;font-family: Helvetica; font-size: 12px; font-style: normal; font-variant-ligatures: normal; font-variant-caps: normal; font-weight: 400; letter-spacing: normal; orphans: 2; text-align: center; text-indent: 0px; text-transform: none; widows: 2; word-spacing: 0px; -webkit-text-stroke-width: 0px; text-decoration-thickness: initial; text-decoration-style: initial; text-decoration-color: initial; float: none; display: inline !important;&quot;&gt;open_connection&lt;/span&gt;&lt;br style=&quot;border-color: rgb(0, 0, 0); font-family: Helvetica; font-size: 12px; font-style: normal; font-variant-ligatures: normal; font-variant-caps: normal; font-weight: 400; letter-spacing: normal; orphans: 2; text-align: center; text-indent: 0px; text-transform: none; widows: 2; word-spacing: 0px; -webkit-text-stroke-width: 0px; text-decoration-thickness: initial; text-decoration-style: initial; text-decoration-color: initial;&quot;&gt;&lt;span style=&quot;font-family: Helvetica; font-size: 12px; font-style: normal; font-variant-ligatures: normal; font-variant-caps: normal; font-weight: 400; letter-spacing: normal; orphans: 2; text-align: center; text-indent: 0px; text-transform: none; widows: 2; word-spacing: 0px; -webkit-text-stroke-width: 0px; text-decoration-thickness: initial; text-decoration-style: initial; text-decoration-color: initial; float: none; display: inline !important;&quot;&gt;setup&lt;/span&gt;&lt;br style=&quot;border-color: rgb(0, 0, 0); font-family: Helvetica; font-size: 12px; font-style: normal; font-variant-ligatures: normal; font-variant-caps: normal; font-weight: 400; letter-spacing: normal; orphans: 2; text-align: center; text-indent: 0px; text-transform: none; widows: 2; word-spacing: 0px; -webkit-text-stroke-width: 0px; text-decoration-thickness: initial; text-decoration-style: initial; text-decoration-color: initial;&quot;&gt;&lt;span style=&quot;font-family: Helvetica; font-size: 12px; font-style: normal; font-variant-ligatures: normal; font-variant-caps: normal; font-weight: 400; letter-spacing: normal; orphans: 2; text-align: center; text-indent: 0px; text-transform: none; widows: 2; word-spacing: 0px; -webkit-text-stroke-width: 0px; text-decoration-thickness: initial; text-decoration-style: initial; text-decoration-color: initial; float: none; display: inline !important;&quot;&gt;read_all_signal&lt;/span&gt;&lt;br style=&quot;border-color: rgb(0, 0, 0); font-family: Helvetica; font-size: 12px; font-style: normal; font-variant-ligatures: normal; font-variant-caps: normal; font-weight: 400; letter-spacing: normal; orphans: 2; text-align: center; text-indent: 0px; text-transform: none; widows: 2; word-spacing: 0px; -webkit-text-stroke-width: 0px; text-decoration-thickness: initial; text-decoration-style: initial; text-decoration-color: initial;&quot;&gt;&lt;span style=&quot;font-family: Helvetica; font-size: 12px; font-style: normal; font-variant-ligatures: normal; font-variant-caps: normal; font-weight: 400; letter-spacing: normal; orphans: 2; text-align: center; text-indent: 0px; text-transform: none; widows: 2; word-spacing: 0px; -webkit-text-stroke-width: 0px; text-decoration-thickness: initial; text-decoration-style: initial; text-decoration-color: initial; float: none; display: inline !important;&quot;&gt;fast_EMG&lt;/span&gt;&lt;br style=&quot;border-color: rgb(0, 0, 0); font-family: Helvetica; font-size: 12px; font-style: normal; font-variant-ligatures: normal; font-variant-caps: normal; font-weight: 400; letter-spacing: normal; orphans: 2; text-align: center; text-indent: 0px; text-transform: none; widows: 2; word-spacing: 0px; -webkit-text-stroke-width: 0px; text-decoration-thickness: initial; text-decoration-style: initial; text-decoration-color: initial;&quot;&gt;&lt;span style=&quot;font-family: Helvetica; font-size: 12px; font-style: normal; font-variant-ligatures: normal; font-variant-caps: normal; font-weight: 400; letter-spacing: normal; orphans: 2; text-align: center; text-indent: 0px; text-transform: none; widows: 2; word-spacing: 0px; -webkit-text-stroke-width: 0px; text-decoration-thickness: initial; text-decoration-style: initial; text-decoration-color: initial; float: none; display: inline !important;&quot;&gt;precise_EMG&lt;/span&gt;" style="rounded=0;whiteSpace=wrap;html=1;verticalAlign=bottom;fillColor=#292929;fontColor=#FFFFFF;labelBackgroundColor=none;" parent="1" vertex="1">
                    <mxGeometry x="460" y="80" width="120" height="120" as="geometry"/>
                </mxCell>
                <mxCell id="uGfOm0XeqOfJQ8dVQIQY-15" value="setup&lt;br&gt;plot" style="rounded=0;whiteSpace=wrap;html=1;verticalAlign=bottom;fillColor=#292929;fontColor=#FFFFFF;" parent="1" vertex="1">
                    <mxGeometry x="650" y="80" width="120" height="80" as="geometry"/>
                </mxCell>
                <mxCell id="uGfOm0XeqOfJQ8dVQIQY-16" value="" style="rounded=0;whiteSpace=wrap;html=1;fillColor=#292929;fontColor=#FFFFFF;" parent="1" vertex="1">
                    <mxGeometry x="820" y="82.5" width="120" height="60" as="geometry"/>
                </mxCell>
                <mxCell id="uGfOm0XeqOfJQ8dVQIQY-5" value="Driver (C++)" style="rounded=0;whiteSpace=wrap;html=1;fillColor=#647687;fontColor=#ffffff;strokeColor=#314354;" parent="1" vertex="1">
                    <mxGeometry x="300" y="127.5" width="120" height="35" as="geometry"/>
                </mxCell>
                <mxCell id="uGfOm0XeqOfJQ8dVQIQY-6" value="API (python)" style="rounded=0;whiteSpace=wrap;html=1;fillColor=#647687;fontColor=#ffffff;strokeColor=#314354;" parent="1" vertex="1">
                    <mxGeometry x="460" y="80" width="120" height="40" as="geometry"/>
                </mxCell>
                <mxCell id="uGfOm0XeqOfJQ8dVQIQY-7" value="API (matlab)" style="rounded=0;whiteSpace=wrap;html=1;fillColor=#647687;fontColor=#ffffff;strokeColor=#314354;" parent="1" vertex="1">
                    <mxGeometry x="820" y="82.5" width="120" height="35" as="geometry"/>
                </mxCell>
                <mxCell id="uGfOm0XeqOfJQ8dVQIQY-8" value="GUI (C++)" style="rounded=0;whiteSpace=wrap;html=1;fillColor=#647687;fontColor=#ffffff;strokeColor=#314354;" parent="1" vertex="1">
                    <mxGeometry x="650" y="80" width="120" height="40" as="geometry"/>
                </mxCell>
                <mxCell id="uGfOm0XeqOfJQ8dVQIQY-17" value="com. bus" style="edgeStyle=orthogonalEdgeStyle;rounded=0;orthogonalLoop=1;jettySize=auto;html=1;startArrow=classic;startFill=1;fillColor=#ffcd28;gradientColor=#ffa500;strokeColor=#d79b00;strokeWidth=3;labelBackgroundColor=#363636;labelBorderColor=#d79b00;fontColor=#FFFFFF;" parent="1" edge="1">
                    <mxGeometry relative="1" as="geometry">
                        <mxPoint x="75" y="224.76000000000002" as="sourcePoint"/>
                        <mxPoint x="20" y="160" as="targetPoint"/>
                        <Array as="points">
                            <mxPoint x="50" y="225"/>
                            <mxPoint x="50" y="160"/>
                        </Array>
                    </mxGeometry>
                </mxCell>
                <mxCell id="uGfOm0XeqOfJQ8dVQIQY-18" value="Vibrotactile" style="rounded=0;whiteSpace=wrap;html=1;fillColor=#d5e8d4;gradientColor=#97d077;strokeColor=#82b366;fontColor=#000000;" parent="1" vertex="1">
                    <mxGeometry x="540.5" y="685" width="80" height="40" as="geometry"/>
                </mxCell>
                <mxCell id="uGfOm0XeqOfJQ8dVQIQY-19" value="FES" style="rounded=0;whiteSpace=wrap;html=1;fillColor=#d5e8d4;gradientColor=#97d077;strokeColor=#82b366;fontColor=#000000;" parent="1" vertex="1">
                    <mxGeometry x="435.5" y="685" width="80" height="40" as="geometry"/>
                </mxCell>
                <mxCell id="uGfOm0XeqOfJQ8dVQIQY-20" value="IMU" style="rounded=0;whiteSpace=wrap;html=1;fillColor=#d5e8d4;gradientColor=#97d077;strokeColor=#82b366;fontColor=#000000;" parent="1" vertex="1">
                    <mxGeometry x="330.5" y="685" width="80" height="40" as="geometry"/>
                </mxCell>
            </root>
        </mxGraphModel>
    </diagram>
</mxfile>